<svg xmlns="http://www.w3.org/2000/svg" width="22" height="16.5" viewBox="0 0 22 16.5">
  <path id="envelope-solid" d="M11,76.375a3.284,3.284,0,0,1-2.026-.705L0,68.692v9.745A2.063,2.063,0,0,0,2.063,80.5H19.938A2.062,2.062,0,0,0,22,78.437V68.692l-8.972,6.982A3.31,3.31,0,0,1,11,76.375ZM.7,67.493l9.118,7.094a1.926,1.926,0,0,0,2.366,0L21.3,67.493a1.941,1.941,0,0,0,.7-1.431A2.063,2.063,0,0,0,19.938,64H2.063A2.062,2.062,0,0,0,0,66.062,1.814,1.814,0,0,0,.7,67.493Z" transform="translate(0 -64)" fill="#f73e3e"/>
</svg>
