<svg xmlns="http://www.w3.org/2000/svg" xmlns:xlink="http://www.w3.org/1999/xlink" width="40" height="45.083" viewBox="0 0 40 45.083">
  <defs>
    <linearGradient id="linear-gradient" x1="-0.001" y1="0.003" x2="1.241" y2="0.938" gradientUnits="objectBoundingBox">
      <stop offset="0" stop-color="#d5d5d5"/>
      <stop offset="0.05" stop-color="#e0e0e0"/>
      <stop offset="0.21" stop-color="#fff"/>
      <stop offset="0.45" stop-color="#363636"/>
      <stop offset="0.67" stop-color="#b7b7b7"/>
      <stop offset="1" stop-color="#d5d5d5"/>
    </linearGradient>
    <linearGradient id="linear-gradient-2" y1="0.5" x2="1" y2="0.5" gradientUnits="objectBoundingBox">
      <stop offset="0" stop-color="#d5d5d5"/>
      <stop offset="0.05" stop-color="#e0e0e0"/>
      <stop offset="0.21" stop-color="#fff"/>
      <stop offset="0.45" stop-color="#3b3b3b"/>
      <stop offset="0.67" stop-color="#b7b7b7"/>
      <stop offset="1" stop-color="#d5d5d5"/>
    </linearGradient>
    <linearGradient id="linear-gradient-3" x1="-0.168" y1="-0.093" x2="2.116" y2="1.557" xlink:href="#linear-gradient"/>
    <linearGradient id="linear-gradient-4" x1="0" y1="0.5" x2="1.001" y2="0.5" xlink:href="#linear-gradient-2"/>
  </defs>
  <g id="icon-silver" transform="translate(0)">
    <g id="Layer_1" data-name="Layer 1" transform="translate(0 0)">
      <path id="Path_6088" data-name="Path 6088" d="M23.861,27.251c-.216.227-.432.454-.648.67l-.227.188a4.926,4.926,0,0,1-6.1-.127l-.066-.022c-.222-.216-.449-.449-.687-.709A35.841,35.841,0,0,1,7,9.27l-1.391.36L4.5,9.941A7.021,7.021,0,0,0,0,16.535q0,.355.033.715h0c.061.355.127.709.194,1.064a56.394,56.394,0,0,0,14.33,28.227q.554.554,1.081,1.108a6.843,6.843,0,0,0,8.744-.022h0q.515-.515,1.014-1.047A56.4,56.4,0,0,0,39.77,18.419c.078-.416.155-.837.222-1.258a5.851,5.851,0,0,0,0-.626A7.026,7.026,0,0,0,35.5,9.952l-1.142-.327c-.454-.122-.909-.238-1.369-.349h0A35.935,35.935,0,0,1,23.861,27.251Z" transform="translate(0 -4.133)" fill="url(#linear-gradient)"/>
      <path id="Path_6089" data-name="Path 6089" d="M6.145,10.633a36.994,36.994,0,0,0,9.182,17.355c.249.266.482.51.709.737h0l.044.044h0a6.034,6.034,0,0,0,7.5.155h0l.227-.188.044-.039.039-.039c.222-.222.449-.454.67-.693a37.032,37.032,0,0,0,9.315-17.333l.227.061,1.069.3a5.957,5.957,0,0,1,3.74,5.541v.488c-.066.4-.139.8-.216,1.191a55.18,55.18,0,0,1-14.08,27.6c-.316.338-.637.671-.953.986A5.741,5.741,0,0,1,20,48.12a5.658,5.658,0,0,1-3.624-1.291c-.327-.327-.659-.67-1.014-1.047A55.263,55.263,0,0,1,1.313,18.114c-.061-.316-.116-.637-.172-.953v-.626A5.946,5.946,0,0,1,4.9,10.993L5.935,10.7l.244-.066M7.026,9.27l-1.385.36-1.108.31A7.021,7.021,0,0,0,0,16.535q0,.355.033.715h0c.061.355.127.709.194,1.064a56.394,56.394,0,0,0,14.33,28.227q.554.554,1.081,1.108a6.843,6.843,0,0,0,8.744-.022h0q.515-.515,1.014-1.047A56.4,56.4,0,0,0,39.77,18.419c.078-.416.155-.837.222-1.258a5.851,5.851,0,0,0,0-.626A7.026,7.026,0,0,0,35.5,9.952l-1.142-.327c-.454-.122-.909-.238-1.369-.349h0a35.935,35.935,0,0,1-9.132,17.976c-.216.227-.432.454-.648.67l-.227.188a4.926,4.926,0,0,1-6.1-.127l-.066-.022c-.222-.216-.449-.449-.687-.709A35.9,35.9,0,0,1,6.993,9.27Z" transform="translate(0 -4.133)" fill="url(#linear-gradient-2)"/>
      <path id="Path_6090" data-name="Path 6090" d="M38.258,3.848v.183c-.033.205-.072.416-.111.626v.05a33.591,33.591,0,0,1-8.578,16.8l-.554.554a2.638,2.638,0,0,1-3.286,0c-.188-.188-.377-.388-.554-.6a33.569,33.569,0,0,1-8.567-16.8h0c-.033-.166-.061-.327-.089-.482V3.848a2.732,2.732,0,0,1,1.7-2.532l.587-.166a32.8,32.8,0,0,1,17.178,0l.615.177a2.737,2.737,0,0,1,1.657,2.521Z" transform="translate(-7.366 -0.002)" fill="url(#linear-gradient-3)"/>
      <path id="Path_6091" data-name="Path 6091" d="M27.353,1.108a31.635,31.635,0,0,1,8.312,1.108l.554.15a1.662,1.662,0,0,1,.953,1.485v.061c-.033.177-.066.36-.1.554v.039a32.538,32.538,0,0,1-8.312,16.247l-.471.493a1.563,1.563,0,0,1-.92.3,1.54,1.54,0,0,1-.9-.294,7.366,7.366,0,0,1-.5-.554,32.455,32.455,0,0,1-8.3-16.269c-.028-.133-.05-.26-.072-.377V3.807a1.662,1.662,0,0,1,.936-1.446l.51-.144a31.458,31.458,0,0,1,8.312-1.108m0-1.108a32.693,32.693,0,0,0-8.6,1.147l-.587.166a2.732,2.732,0,0,0-1.7,2.532v.3a2.613,2.613,0,0,0,.089.482h0a33.569,33.569,0,0,0,8.578,16.851c.205.216.393.416.554.6a2.638,2.638,0,0,0,3.286,0l.554-.554A33.591,33.591,0,0,0,38.109,4.7v-.05c.039-.211.078-.421.111-.626V3.846a2.737,2.737,0,0,0-1.662-2.527l-.621-.177A32.633,32.633,0,0,0,27.353,0Z" transform="translate(-7.343 0)" fill="url(#linear-gradient-4)"/>
    </g>
  </g>
</svg>
