<svg xmlns="http://www.w3.org/2000/svg" width="50" height="50" viewBox="0 0 50 50">
  <g id="icon-youtube" transform="translate(-434 -274)">
    <g id="youtube_logo_icon_168737" transform="translate(443 278.431)">
      <path id="Subtraction_1" data-name="Subtraction 1" d="M16,22.43c-.1,0-10.031-.008-12.488-.679A4.041,4.041,0,0,1,.679,18.917,41.318,41.318,0,0,1,0,11.215,42.314,42.314,0,0,1,.658,3.534,4.045,4.045,0,0,1,3.492.7C5.934.032,15.88,0,15.98,0S26.01.008,28.467.679A4.047,4.047,0,0,1,31.3,3.513a41.937,41.937,0,0,1,.7,7.7,41.323,41.323,0,0,1-.677,7.7,4.047,4.047,0,0,1-2.835,2.835C26.031,22.423,16.1,22.43,16,22.43ZM12.8,6.41h0v9.612l8.3-4.806Z" transform="translate(0 9.569)" fill="#fff"/>
    </g>
    <g id="Rectangle_14338" data-name="Rectangle 14338" transform="translate(434 274)" fill="none" stroke="#fff" stroke-width="2">
      <rect width="50" height="50" rx="15" stroke="none"/>
      <rect x="1" y="1" width="48" height="48" rx="14" fill="none"/>
    </g>
  </g>
</svg>
