<svg xmlns="http://www.w3.org/2000/svg" width="40" height="40" viewBox="0 0 50 50">
  <g id="icon-linkedin" transform="translate(-334 -274)">
    <g id="LINKEDIN_icon-icons.com_65488" transform="translate(342.4 280.23)">
      <path id="Path_606" data-name="Path 606" d="M173.5,180.238V161.992c0-.166-.011-.3.232-.3,1.758.011,3.522.006,5.28.006a1.2,1.2,0,0,1,.16.022v2.306c.022.006.039.017.061.022.221-.288.431-.586.664-.868a5.763,5.763,0,0,1,2.516-1.8,5.838,5.838,0,0,1,1.7-.348,11.234,11.234,0,0,1,2.361.111,6.059,6.059,0,0,1,3.323,1.7,6.7,6.7,0,0,1,1.775,3.091,18.626,18.626,0,0,1,.37,1.9,9.083,9.083,0,0,1,.1,1.338q.008,5.391.006,10.782c0,.088-.006.177-.011.293h-.282c-1.7,0-3.389-.006-5.087.006-.282,0-.332-.094-.332-.348.006-3.307.017-6.618-.006-9.925a7.084,7.084,0,0,0-.21-1.742,2.9,2.9,0,0,0-1.874-2.046,4.185,4.185,0,0,0-2.521-.144,3.353,3.353,0,0,0-2.073,1.686,3.943,3.943,0,0,0-.453,2.04c-.022,3.356-.011,6.707-.011,10.063v.393C177.281,180.238,175.406,180.238,173.5,180.238Z" transform="translate(-161.45 -147.605)" fill="#fff"/>
      <path id="Path_607" data-name="Path 607" d="M11.039,184.739c0,2.947-.006,5.894.006,8.841,0,.265-.055.365-.348.359q-2.53-.025-5.059,0c-.276,0-.337-.094-.337-.348q.008-8.883,0-17.771c0-.238.066-.321.31-.321q2.555.017,5.115,0c.265,0,.315.1.315.337Q11.039,180.291,11.039,184.739Z" transform="translate(-2.551 -161.291)" fill="#fff"/>
      <path id="Path_608" data-name="Path 608" d="M5.558,4.771a2.749,2.749,0,0,1,2.914,2.9,2.79,2.79,0,0,1-2.98,2.892A2.793,2.793,0,0,1,2.6,7.624,2.769,2.769,0,0,1,5.558,4.771Z" transform="translate(0 0)" fill="#fff"/>
    </g>
    <g id="Rectangle_14337" data-name="Rectangle 14337" transform="translate(334 274)" fill="none" stroke="#fff" stroke-width="2">
      <rect width="50" height="50" rx="15" stroke="none"/>
      <rect x="1" y="1" width="48" height="48" rx="14" fill="none"/>
    </g>
  </g>
</svg>
