<svg xmlns="http://www.w3.org/2000/svg" xmlns:xlink="http://www.w3.org/1999/xlink" width="52.409" height="52.059" viewBox="0 0 52.409 52.059">
  <defs>
    <linearGradient id="linear-gradient" x1="-0.195" y1="0.7" x2="0.952" y2="-0.121" gradientUnits="objectBoundingBox">
      <stop offset="0" stop-color="#5f1edd"/>
      <stop offset="0.409" stop-color="#eb243b"/>
      <stop offset="1" stop-color="#fe2525"/>
    </linearGradient>
    <linearGradient id="linear-gradient-2" x1="0.4" y1="1.091" x2="0.444" y2="-0.133" gradientUnits="objectBoundingBox">
      <stop offset="0" stop-color="#5f1edd"/>
      <stop offset="1" stop-color="#fe2525"/>
    </linearGradient>
    <linearGradient id="linear-gradient-5" x1="0.741" y1="1" x2="0.952" y2="-0.121" xlink:href="#linear-gradient"/>
  </defs>
  <g id="plan-pro" transform="translate(1.028 0.132)">
    <path id="Path_439" data-name="Path 439" d="M96.13,1.23c1.959,2.411,10.776,5.3,12.386,13.461s-5.786,16.54-6.343,17.159A34.9,34.9,0,0,0,96.13,1.23Z" transform="translate(-76.753)" stroke="rgba(0,0,0,0)" stroke-width="1" fill="url(#linear-gradient)"/>
    <path id="Path_440" data-name="Path 440" d="M79.138,16.812c-1-6.429,3.078-12.014,3.287-15.582h0a34.9,34.9,0,0,1,6.043,30.62c-.022.024.561-.866-.034.036C85.425,27.751,80.483,25.342,79.138,16.812Z" transform="translate(-63.049 0)" stroke="rgba(0,0,0,0)" stroke-width="1" fill="url(#linear-gradient-2)"/>
    <path id="Path_441" data-name="Path 441" d="M122.77,80.323a35.711,35.711,0,0,1,.5,8.538c-.052,2.465-.257,6.027-.4,8.526-.161,2.831-.2,5.671-.482,8.49-.129,1.406-.273,2.813-.388,4.219a19.481,19.481,0,0,0-.05,4.189.082.082,0,0,1-.064.1.08.08,0,0,1-.084-.04,11.461,11.461,0,0,1-.932-4.249,46.594,46.594,0,0,1,.219-8.569c.259-2.109.737-6.357.954-8.47A96.783,96.783,0,0,0,122.8,82.47a13.348,13.348,0,0,0-.177-2.109.08.08,0,0,1,.155-.038Z" transform="translate(-96.44 -63.155)" fill="#841045"/>
    <path id="Path_442" data-name="Path 442" d="M150.016,126.1c-3.335,1.017-13.4-1.794-20.014,4.822s-4.956,19.086-4.822,20.014A39.269,39.269,0,0,1,150.016,126.1Z" transform="translate(-99.742 -99.783)" stroke="rgba(0,0,0,0)" stroke-width="1" fill="url(#linear-gradient)"/>
    <path id="Path_443" data-name="Path 443" d="M144.444,142.725c4.98-5.38,4.651-13.157,6.692-16.625h0A39.269,39.269,0,0,0,126.3,150.936c0,.036.016-1.161,0,.056C131.71,149.013,137.842,149.857,144.444,142.725Z" transform="translate(-100.862 -99.783)" stroke="rgba(0,0,0,0)" stroke-width="1" fill="url(#linear-gradient-2)"/>
    <path id="Path_444" data-name="Path 444" d="M135.66,172.514a41.4,41.4,0,0,0-5.258,7.417c-.317.575-.719,1.424-.992,2.031a45.125,45.125,0,0,1-2.1,4.012c-.39.659-.773,1.326-1.238,1.977a.084.084,0,0,1-.153-.05,14.626,14.626,0,0,1,1.513-5.655,37.336,37.336,0,0,1,2.547-3.932,32.384,32.384,0,0,1,5.567-5.9.082.082,0,0,1,.115.012.084.084,0,0,1,0,.1Z" transform="translate(-100.558 -136.775)" fill="#841045"/>
    <path id="Path_445" data-name="Path 445" d="M.08,126.1c3.335,1.017,13.4-1.794,20.014,4.822s4.956,19.086,4.822,20.014A39.269,39.269,0,0,0,.08,126.1Z" transform="translate(0 -99.783)" stroke="rgba(0,0,0,0)" stroke-width="1" fill="url(#linear-gradient-5)"/>
    <path id="Path_446" data-name="Path 446" d="M6.772,142.725C1.792,137.345,2.121,129.568.08,126.1h0a39.269,39.269,0,0,1,24.836,24.836c0,.036-.016-1.161,0,.056C19.505,149.013,13.374,149.857,6.772,142.725Z" transform="translate(0 -99.783)" stroke="rgba(0,0,0,0)" stroke-width="1" fill="url(#linear-gradient-2)"/>
    <path id="Path_447" data-name="Path 447" d="M75.652,172.368a33.848,33.848,0,0,1,6.9,7.835,14.682,14.682,0,0,1,2.728,7.662.084.084,0,0,1-.153.05c-.464-.651-.848-1.318-1.238-1.977a44.6,44.6,0,0,1-2.1-4.014,28.032,28.032,0,0,0-1.553-3.014,41.559,41.559,0,0,0-4.7-6.429.082.082,0,0,1,.113-.117Z" transform="translate(-60.287 -136.743)" fill="#841045"/>
  </g>
</svg>
