<svg xmlns="http://www.w3.org/2000/svg" xmlns:xlink="http://www.w3.org/1999/xlink" width="57.652" height="57.037" viewBox="0 0 57.652 57.037">
  <defs>
    <linearGradient id="linear-gradient" x1="1" y1="0.773" x2="0.393" y2="-0.543" gradientUnits="objectBoundingBox">
      <stop offset="0" stop-color="#5f1edd"/>
      <stop offset="0.409" stop-color="#eb243b"/>
      <stop offset="1" stop-color="#fe2525"/>
    </linearGradient>
    <linearGradient id="linear-gradient-2" x1="-0.202" y1="0.897" x2="0.952" y2="-0.121" xlink:href="#linear-gradient"/>
    <linearGradient id="linear-gradient-3" x1="0.4" y1="1.091" x2="0.444" y2="-0.133" gradientUnits="objectBoundingBox">
      <stop offset="0" stop-color="#5f1edd"/>
      <stop offset="1" stop-color="#fe2525"/>
    </linearGradient>
    <linearGradient id="linear-gradient-5" x1="-0.195" y1="0.7" x2="0.952" y2="-0.121" xlink:href="#linear-gradient"/>
    <linearGradient id="linear-gradient-6" x1="0.765" y1="1.129" x2="0.952" y2="-0.121" xlink:href="#linear-gradient"/>
    <linearGradient id="linear-gradient-9" x1="-0.32" y1="0.935" x2="0.952" y2="-0.121" xlink:href="#linear-gradient"/>
  </defs>
  <g id="plan-enterprise" transform="translate(0.3 1.271)">
    <path id="Path_448" data-name="Path 448" d="M0,147.246c2.307-.175,7.82-4.37,13.523-1.85s7.757,10.712,7.9,11.312A26.177,26.177,0,0,0,0,147.246Z" transform="translate(0 -112.204)" stroke="rgba(0,0,0,0)" stroke-width="1" fill="url(#linear-gradient)"/>
    <path id="Path_449" data-name="Path 449" d="M33.256,25.3c-.851,2.41-6.881,7.128-5.853,13.908s9.112,11.22,9.715,11.543A28.782,28.782,0,0,1,33.256,25.3Z" transform="translate(-21.173 -19.633)" stroke="rgba(0,0,0,0)" stroke-width="1" fill="url(#linear-gradient-2)"/>
    <path id="Path_450" data-name="Path 450" d="M56,36.475c-1.01-5.277-5.746-8.463-6.9-11.175h0a28.782,28.782,0,0,0,3.862,25.451c.025.013-.672-.513.038.02C54.174,46.721,57.337,43.471,56,36.475Z" transform="translate(-37.011 -19.633)" stroke="rgba(0,0,0,0)" stroke-width="1" fill="url(#linear-gradient-3)"/>
    <path id="Path_451" data-name="Path 451" d="M48.879,83.285a41.282,41.282,0,0,0,3,8.028c1.165,2.605,2.464,5.179,3.795,7.721.995,1.9,2.094,3.75,3.136,5.627a22.574,22.574,0,0,0,3.461,5.136,6.978,6.978,0,0,0,3.4,2.22.092.092,0,0,1,.069.11.09.09,0,0,1-.076.069,4.525,4.525,0,0,1-2.24-.332c-4.962-2.159-6.944-7.616-9.041-12.2A103.446,103.446,0,0,1,49.66,87.548a22.255,22.255,0,0,1-.952-4.24.09.09,0,0,1,.081-.1.092.092,0,0,1,.1.076Z" transform="translate(-37.797 -64.57)" fill="#841045"/>
    <path id="Path_452" data-name="Path 452" d="M8.216,165.114c-4.39-2.146-6.1-7.078-8.207-8.736H0a26.177,26.177,0,0,1,21.41,9.462c0,.025-.3-.719,0,.038C17.611,165.945,14.038,167.961,8.216,165.114Z" transform="translate(0 -121.326)" stroke="rgba(0,0,0,0)" stroke-width="1" fill="url(#linear-gradient-3)"/>
    <path id="Path_453" data-name="Path 453" d="M52,165.646a21.357,21.357,0,0,1,6.373,3,10.052,10.052,0,0,1,1.295.925,7.2,7.2,0,0,1,2.085,3.409.1.1,0,0,1-.139.114,9.88,9.88,0,0,1-1.409-.782,12.1,12.1,0,0,1-2.318-1.886l-.511-.547a28.577,28.577,0,0,0-5.443-4.07.092.092,0,0,1,.067-.166Z" transform="translate(-40.272 -128.541)" fill="#841045"/>
    <path id="Path_454" data-name="Path 454" d="M174.914,146.614c-2.334-.177-7.916-4.424-13.691-1.873s-7.84,10.835-7.983,11.453A26.488,26.488,0,0,1,174.914,146.614Z" transform="translate(-118.914 -111.687)" stroke="rgba(0,0,0,0)" stroke-width="1" fill="url(#linear-gradient-5)"/>
    <path id="Path_455" data-name="Path 455" d="M181.484,25.3c.849,2.41,6.881,7.128,5.853,13.908s-9.112,11.22-9.717,11.543A28.784,28.784,0,0,0,181.484,25.3Z" transform="translate(-137.833 -19.633)" stroke="rgba(0,0,0,0)" stroke-width="1" fill="url(#linear-gradient-6)"/>
    <path id="Path_456" data-name="Path 456" d="M162.925,36.475c1.01-5.277,5.743-8.463,6.9-11.175h0a28.784,28.784,0,0,1-3.864,25.451c-.022.013.672-.513-.036.02C164.749,46.721,161.586,43.471,162.925,36.475Z" transform="translate(-126.178 -19.633)" stroke="rgba(0,0,0,0)" stroke-width="1" fill="url(#linear-gradient-3)"/>
    <path id="Path_457" data-name="Path 457" d="M141.1,83.311a38.888,38.888,0,0,1-2.35,8.351c-1.012,2.708-2.139,5.376-3.329,8.008-2.09,4.574-4.079,10.042-9.041,12.2a4.525,4.525,0,0,1-2.24.332.09.09,0,0,1-.078-.1.1.1,0,0,1,.072-.076,7,7,0,0,0,3.4-2.22A22.406,22.406,0,0,0,131,104.665c1.03-1.877,2.132-3.725,3.125-5.627a110.668,110.668,0,0,0,6.238-13.684,15.145,15.145,0,0,0,.562-2.065.09.09,0,0,1,.105-.074A.087.087,0,0,1,141.1,83.311Z" transform="translate(-96.275 -64.573)" fill="#841045"/>
    <path id="Path_458" data-name="Path 458" d="M166.564,164.668c4.446-2.173,6.173-7.168,8.31-8.852h0A26.488,26.488,0,0,0,153.2,165.4c0,.022.3-.73,0,.036C157.055,165.511,160.673,167.551,166.564,164.668Z" transform="translate(-118.883 -120.89)" stroke="rgba(0,0,0,0)" stroke-width="1" fill="url(#linear-gradient-3)"/>
    <path id="Path_459" data-name="Path 459" d="M162.867,165.4a28.959,28.959,0,0,0-5.517,4.113l-.517.553a12.573,12.573,0,0,1-2.35,1.913,10.078,10.078,0,0,1-1.42.8.1.1,0,0,1-.132-.052,4.883,4.883,0,0,1,.623-1.6,7.84,7.84,0,0,1,1.49-1.9,10.376,10.376,0,0,1,1.31-.939c.672-.428,1.344-.871,2.045-1.259a20.691,20.691,0,0,1,4.4-1.792.092.092,0,0,1,.069.166Z" transform="translate(-118.674 -128.213)" fill="#841045"/>
    <path id="Path_460" data-name="Path 460" d="M122.216,0c-2.094,1.792-10.293,2.912-12.981,9.856s2.5,15.575,2.892,16.213A31.261,31.261,0,0,1,122.216,0Z" transform="translate(-84.169 0)" stroke="rgba(0,0,0,0)" stroke-width="1" fill="url(#linear-gradient-9)"/>
    <path id="Path_461" data-name="Path 461" d="M134.9,14.328c1.9-5.524-.829-11.128-.448-14.318h0a31.261,31.261,0,0,0-10.08,26.071c.016.025-.356-.858.025.038C127.666,22.961,132.383,21.646,134.9,14.328Z" transform="translate(-96.396 -0.008)" stroke="rgba(0,0,0,0)" stroke-width="1" fill="url(#linear-gradient-3)"/>
    <path id="Path_462" data-name="Path 462" d="M123.253,51.9a33.234,33.234,0,0,0-1.3,8.024,20.482,20.482,0,0,1-.307,4.48,14.337,14.337,0,0,1-.423,1.846.1.1,0,0,1-.123.063.105.105,0,0,1-.056-.047,7.716,7.716,0,0,1-.672-1.812,10.218,10.218,0,0,1-.289-2.818,13.4,13.4,0,0,1,.282-1.868c.193-.921.372-1.844.62-2.751a24.939,24.939,0,0,1,2.1-5.188.09.09,0,0,1,.166.067Z" transform="translate(-93.181 -40.176)" fill="#841045"/>
    <path id="Path_463" data-name="Path 463" d="M124.4,132.229V99.5" transform="translate(-96.534 -77.212)" fill="none" stroke="#841045" stroke-linecap="round" stroke-linejoin="round" stroke-width="1.5"/>
  </g>
</svg>
