<svg xmlns="http://www.w3.org/2000/svg" width="52" height="48.039" viewBox="0 0 52 48.039">
  <g id="icon-why_us_3" data-name="icon-why us 3" transform="translate(-1002.646 -3737.146)">
    <line id="Line_68" data-name="Line 68" x1="0.196" y1="0.196" transform="translate(1018.202 3773.381)" fill="none" stroke="#f73e3e" stroke-width="2"/>
    <line id="Line_69" data-name="Line 69" x1="0.196" y1="0.196" transform="translate(1013.033 3768.212)" fill="none" stroke="#f73e3e" stroke-width="2"/>
    <path id="Path_649" data-name="Path 649" d="M4.912,25.592l-.13-.13A14.622,14.622,0,0,1,25.461,4.783l.04.04" transform="translate(1003.146 3737.645)" fill="none" stroke="#f73e3e" stroke-width="2"/>
    <path id="Path_650" data-name="Path 650" d="M136.35,192.921l.132.132c.066.066.126.132.185.2" transform="translate(892.125 3580.394)" fill="none" stroke="#f73e3e" stroke-width="2"/>
    <line id="Line_70" data-name="Line 70" x1="0.196" y1="0.196" transform="translate(1018.202 3773.381)" fill="none" stroke="#f73e3e" stroke-width="2"/>
    <path id="Path_651" data-name="Path 651" d="M108.42,221.561l.066.066c.044.044.088.086.133.126" transform="translate(914.95 3556.988)" fill="none" stroke="#f73e3e" stroke-width="2"/>
    <line id="Line_71" data-name="Line 71" x1="0.329" y1="0.329" transform="translate(1023.305 3768.144)" fill="none" stroke="#f73e3e" stroke-width="2"/>
    <line id="Line_72" data-name="Line 72" x1="0.329" y1="0.329" transform="translate(1023.305 3768.144)" fill="none" stroke="#f73e3e" stroke-width="2"/>
    <path id="Path_652" data-name="Path 652" d="M122.93,122.931l7.753,7.753a3.658,3.658,0,0,1-1.08,5.918" transform="translate(903.092 3637.592)" fill="none" stroke="#f73e3e" stroke-width="2"/>
    <path id="Path_653" data-name="Path 653" d="M136.69,193.243c-.071-.058-.141-.122-.208-.19l-.132-.132" transform="translate(892.125 3580.394)" fill="none" stroke="#f73e3e" stroke-width="2"/>
    <path id="Path_654" data-name="Path 654" d="M128.1,94.644l7.754,7.754a3.655,3.655,0,1,1-5.169,5.17l-7.754-7.754" transform="translate(903.095 3660.709)" fill="none" stroke="#f73e3e" stroke-width="2"/>
    <path id="Path_655" data-name="Path 655" d="M112.1,17.708l7.754,7.754a3.655,3.655,0,0,0,5.17-5.17l-7.754-7.754-2.545-2.546-5.131,5.131a3.655,3.655,0,0,1-5.169-5.17l.338-.338,4.832-4.832a14.622,14.622,0,1,1,20.678,20.678L113.731,42" transform="translate(919.09 3737.645)" fill="none" stroke="#f73e3e" stroke-width="2"/>
    <path id="Path_656" data-name="Path 656" d="M23.166,117.861h0a3.655,3.655,0,0,1,0-5.17l3.561-3.561a3.655,3.655,0,0,1,5.17,5.17l-3.561,3.561A3.656,3.656,0,0,1,23.166,117.861Z" transform="translate(985.497 3649.745)" fill="none" stroke="#f73e3e" stroke-width="2"/>
    <path id="Path_657" data-name="Path 657" d="M51.45,146.146h0a3.655,3.655,0,0,1,0-5.169l3.561-3.561a3.655,3.655,0,1,1,5.17,5.169l-3.561,3.561A3.656,3.656,0,0,1,51.45,146.146Z" transform="translate(962.383 3626.63)" fill="none" stroke="#f73e3e" stroke-width="2"/>
    <path id="Path_658" data-name="Path 658" d="M79.734,174.43h0a3.655,3.655,0,0,1,0-5.169L83.3,165.7a3.655,3.655,0,1,1,5.17,5.169L84.9,174.43A3.656,3.656,0,0,1,79.734,174.43Z" transform="translate(939.268 3603.515)" fill="none" stroke="#f73e3e" stroke-width="2"/>
    <path id="Path_659" data-name="Path 659" d="M108.019,202.714h0a3.655,3.655,0,0,1,0-5.169l3.561-3.561a3.655,3.655,0,1,1,5.17,5.169l-3.561,3.561A3.655,3.655,0,0,1,108.019,202.714Z" transform="translate(916.153 3580.401)" fill="none" stroke="#f73e3e" stroke-width="2"/>
  </g>
</svg>
