<svg id="vizion_logo" data-name="vizion logo" xmlns="http://www.w3.org/2000/svg" xmlns:xlink="http://www.w3.org/1999/xlink" width="80" height="70" viewBox="0 0 80 70">
  <defs>
    <clipPath id="clip-path">
      <rect id="Rectangle_2" data-name="Rectangle 2" width="80" height="70" fill="#fff"/>
    </clipPath>
  </defs>
  <g id="Group_1" data-name="Group 1" clip-path="url(#clip-path)">
    <path id="Path_1" data-name="Path 1" d="M38.438,41.735c-.4-.376-.794-.757-1.172-1.133l-.328-.4a8.6,8.6,0,0,1,.223-10.7l.072-.079c.387-.386.794-.78,1.244-1.2A62.87,62.87,0,0,1,69.886,12.236q-.3-1.22-.627-2.428-.259-.956-.54-1.9A12.379,12.379,0,0,0,55.935.062s-.005,0-.007,0q-.935.156-1.861.331A98.642,98.642,0,0,0,4.7,25.464q-.986.928-1.947,1.883A11.964,11.964,0,0,0,2.8,42.684a.008.008,0,0,0,0,.005q.907.9,1.836,1.774a98.632,98.632,0,0,0,49.245,25.1q1.094.207,2.2.392.543.048,1.1.049A12.3,12.3,0,0,0,68.7,62.144q.294-.994.567-2,.324-1.19.618-2.392l-.013,0A62.866,62.866,0,0,1,38.438,41.735" transform="translate(0)" fill="#f73e3e"/>
    <path id="Path_2" data-name="Path 2" d="M178.924,97.459c-.106,0-.215,0-.322-.011-.36-.061-.729-.127-1.1-.2l-.087-.016a58.774,58.774,0,0,1-29.386-14.977c-.335-.315-.665-.633-.987-.951a4.63,4.63,0,0,1-.025-5.747c.328-.325.673-.657,1.05-1.012A58.773,58.773,0,0,1,177.5,59.59l.038-.007c.3-.056.577-.106.848-.153h.188l.111-.033c.078,0,.157-.006.237-.006a4.784,4.784,0,0,1,4.43,2.971c.108.37.2.706.289,1.024a57.381,57.381,0,0,1,.005,30.05c-.1.349-.2.709-.3,1.072a4.788,4.788,0,0,1-4.421,2.95" transform="translate(-106.772 -43.425)" fill="#f73e3e"/>
    
  </g>
</svg>
